<mxfile host="app.diagrams.net" modified="2022-01-14T16:16:18.812Z" agent="5.0 (Windows NT 10.0; Win64; x64) AppleWebKit/537.36 (KHTML, like Gecko) Chrome/97.0.4692.71 Safari/537.36 Edg/97.0.1072.55" etag="LYFQsNh3Jrs9Wgt3CPFM" version="16.2.7" type="github">
  <diagram id="Jh1lQvCwjJmvqfQ_JmAx" name="Page-1">
    <mxGraphModel dx="868" dy="450" grid="1" gridSize="10" guides="1" tooltips="1" connect="1" arrows="1" fold="1" page="1" pageScale="1" pageWidth="827" pageHeight="1169" math="0" shadow="0">
      <root>
        <mxCell id="0" />
        <mxCell id="1" parent="0" />
        <mxCell id="P1e0AgWwU6S6554_g8Xj-5" style="edgeStyle=orthogonalEdgeStyle;rounded=0;orthogonalLoop=1;jettySize=auto;html=1;" parent="1" source="P1e0AgWwU6S6554_g8Xj-1" target="P1e0AgWwU6S6554_g8Xj-4" edge="1">
          <mxGeometry relative="1" as="geometry" />
        </mxCell>
        <mxCell id="P1e0AgWwU6S6554_g8Xj-1" value="SPLASH" style="whiteSpace=wrap;html=1;aspect=fixed;" parent="1" vertex="1">
          <mxGeometry x="40" y="120" width="80" height="80" as="geometry" />
        </mxCell>
        <mxCell id="t2YSA9audPL5Asu2x8ZA-8" style="edgeStyle=orthogonalEdgeStyle;rounded=0;orthogonalLoop=1;jettySize=auto;html=1;exitX=1;exitY=0.25;exitDx=0;exitDy=0;entryX=0;entryY=0.5;entryDx=0;entryDy=0;" parent="1" source="P1e0AgWwU6S6554_g8Xj-4" target="t2YSA9audPL5Asu2x8ZA-4" edge="1">
          <mxGeometry relative="1" as="geometry" />
        </mxCell>
        <mxCell id="P1e0AgWwU6S6554_g8Xj-4" value="&lt;b&gt;&lt;u&gt;PANTALLA PRINCIPAL&lt;/u&gt;&lt;/b&gt;&lt;br&gt;&lt;br&gt;OPCIÓN DE REGISTER O LOGIN&lt;br&gt;&lt;br&gt;MENÚ DESPLEGABLE PARA DESLIZARSE ENTRE DISTINTOS RESTAURANTES&lt;br&gt;&lt;br&gt;LUPA PARA BUSCAR DIRECTAMENTE ALGO" style="whiteSpace=wrap;html=1;aspect=fixed;" parent="1" vertex="1">
          <mxGeometry x="290" y="100" width="170" height="170" as="geometry" />
        </mxCell>
        <mxCell id="t2YSA9audPL5Asu2x8ZA-4" value="&lt;b&gt;&lt;u&gt;PANTALLA REGISTRO&lt;/u&gt;&lt;/b&gt;&lt;br&gt;&lt;br&gt;(USUARIO, CORREO, CONTRASEÑA)&lt;br&gt;&lt;br&gt;ACEPTAR TERMINOS&amp;nbsp;&lt;br&gt;&lt;br&gt;REPETIR CONTRASEÑA" style="rounded=0;whiteSpace=wrap;html=1;" parent="1" vertex="1">
          <mxGeometry x="570" y="30" width="180" height="160" as="geometry" />
        </mxCell>
        <mxCell id="t2YSA9audPL5Asu2x8ZA-12" style="edgeStyle=orthogonalEdgeStyle;rounded=0;orthogonalLoop=1;jettySize=auto;html=1;entryX=1;entryY=0.25;entryDx=0;entryDy=0;" parent="1" source="t2YSA9audPL5Asu2x8ZA-11" target="P1e0AgWwU6S6554_g8Xj-4" edge="1">
          <mxGeometry relative="1" as="geometry" />
        </mxCell>
        <mxCell id="t2YSA9audPL5Asu2x8ZA-11" value="&lt;b&gt;&lt;u&gt;PANTALLA LOGIN&lt;br&gt;&lt;/u&gt;&lt;/b&gt;&lt;br&gt;(USUARIO, CONTRASEÑA)&lt;br&gt;&lt;br&gt;HE OLVIDADO MI CONTRASEÑA (NUEVA CONTRASEÑA EN CORREO)&lt;br&gt;" style="rounded=0;whiteSpace=wrap;html=1;" parent="1" vertex="1">
          <mxGeometry x="570" y="240" width="180" height="140" as="geometry" />
        </mxCell>
        <mxCell id="7Yfh5AyqLOjwtyAgm3iN-1" value="Semen" style="rounded=1;whiteSpace=wrap;html=1;" vertex="1" parent="1">
          <mxGeometry x="80" y="290" width="120" height="60" as="geometry" />
        </mxCell>
      </root>
    </mxGraphModel>
  </diagram>
</mxfile>
